<svg width="10383" height="3190" viewBox="0 0 10383 3190" fill="none" xmlns="http://www.w3.org/2000/svg">
<path d="M2731.6 839.561L3197.07 694.103C3197.56 693.95 3198 693.791 3198.48 693.599C3211.41 688.411 3405.64 612.234 3464.6 693.874C3492.55 732.569 3500.15 765.085 3494.25 812.45C3483.45 899.071 3327.72 956.588 3316.96 960.463C3316.55 960.613 3316.18 960.761 3315.77 960.939L2849.74 1164.82C2844.89 1166.95 2841.23 1171.13 2839.77 1176.23L2723.5 1583.17C2723.5 1583.19 2723.51 1583.2 2723.52 1583.2C2723.54 1583.2 2723.88 1583.14 2723.9 1583.13L2812.43 1553.56C2917.17 1518.57 2902.45 1523.61 2929.02 1523.89C2930.47 1523.91 2931.87 1524.06 2933.27 1524.47C2948.59 1528.93 3042.81 1560.54 2960.87 1642.48C2884.05 1719.29 2718.61 1751.88 2674.95 1759.34C2668.31 1760.47 2662.86 1765.1 2660.73 1771.5L2577.49 2021.22C2576.53 2024.1 2579.13 2026.9 2582.07 2026.16L2669.77 2004.24C2685.31 2000.35 2701.73 2002.16 2716.05 2009.32C2738.78 2020.68 2753.14 2043.92 2753.14 2069.33V2070.77C2753.14 2081.54 2750.63 2092.17 2745.81 2101.81L2742.79 2107.86C2730.49 2132.44 2708.45 2150.74 2682.02 2158.29L2519.01 2204.86C2517.12 2205.41 2515.61 2206.85 2514.99 2208.72L2397.41 2561.46L2193.23 2638.03C2179.56 2643.15 2165.64 2630.8 2169.31 2616.68C2206.26 2474.73 2339.64 1916.17 2253.16 1553.56C2243.34 1512.39 2227.55 1460.57 2214.2 1419.01C2201.2 1378.55 2157.38 1357.3 2117.22 1371.2L1431.32 1608.63C1424.06 1611.15 1419.21 1617.86 1419.12 1625.54C1418.31 1688.69 1407.01 1969.46 1270.93 2057.51C1224.8 2087.35 1147.76 2105.79 1112.16 2113.14C1101.93 2115.25 1092.37 2107.82 1091.57 2097.4L1068.89 1802.54C1068.89 1802.54 1037.59 1833.16 992.371 1877.6C802.14 2064.56 820.785 2461.64 974.707 2679.47C1037.55 2768.41 1160.44 3005.12 1867.59 3035.21C2933.88 3080.58 3396.39 2101.56 3554.76 1639.53C3556.86 1633.39 3563.77 1636.14 3562.15 1642.43L3562.15 1642.45L3562.14 1642.48C3561.88 1643.57 3171.38 3301.97 1511.85 3183.43C1156.12 3158.02 952.436 3035.2 800.394 2857.34C498.684 2504.38 586.821 1925.61 900.227 1583C921.788 1559.43 942.594 1535.09 962.471 1509.97C969.89 1500.6 970.434 1487.55 964.011 1477.47L777.043 1183.98C771.57 1175.39 774.412 1164.04 783.488 1159.42C815.868 1142.93 889.374 1108.91 944.842 1108.89C1010.71 1108.87 1269.98 1324.83 1321.34 1368.17C1326.81 1372.78 1334.37 1373.61 1340.76 1370.42L1981.97 1049.9C2016.34 1032.73 2032.81 992.864 2020.64 956.422C2018.85 951.074 2016.99 945.499 2015.07 939.743C1993.66 875.577 1957.69 817.221 1909.83 769.423C1875.92 735.561 1836.18 695.864 1804.52 664.229C1735.05 594.799 1626.69 486.393 1626.66 486.364L1626.58 486.288C1623.96 483.661 1553.52 413.226 1508.08 367.787C1438.62 298.324 1508.08 367.777 1330.22 189.912C1313.76 173.46 1316.02 148.036 1332.48 131.585C1368.05 96.0111 1427.67 36.3993 1452.57 11.4929C1456.75 7.30637 1461.53 4.75759 1466.65 3.46754C1473.55 1.72638 1502.15 8.10606 1508.08 12.0567C1559.29 46.1918 1581.01 60.6738 1590.23 66.8178C1594.55 69.7016 1599.45 73.0845 1603.68 76.1057L1796.61 213.913C1801.54 217.436 1807.86 218.235 1813.52 216.081C1846.94 203.374 1965.86 160.278 2041.68 160.278C2067.56 160.278 2088.12 167.446 2100.97 189.922C2112.45 210.025 2122.7 228.326 2115.79 252.453C2112.53 263.82 2107.83 269.224 2100.97 278.855C2071.71 319.93 1986.95 337.238 1982.57 338.108C1982.55 338.112 1982.59 338.134 1982.61 338.133C1982.61 338.133 1982.61 338.134 1982.62 338.136L2180.28 479.487C2186.11 483.654 2193.83 483.954 2200.02 480.365C2233.66 460.888 2344.21 400.5 2427.05 397.432C2436.59 397.078 2450.55 397.308 2455.16 397.399C2456.19 397.419 2457.17 397.525 2458.18 397.751C2473.35 401.16 2597.88 432.354 2486.34 516.008C2381.05 594.978 2369.25 603.825 2367.93 604.816C2367.93 604.819 2367.98 604.931 2367.98 604.931L2367.99 604.932L2716.43 837.38C2720.9 840.362 2726.48 841.163 2731.6 839.561Z" fill="black"/>
<path d="M4304.25 1284.13C4298.4 1294.37 4292.06 1301.93 4285.23 1306.8C4278.89 1311.19 4270.85 1313.39 4261.09 1313.39C4250.85 1313.39 4239.64 1309.73 4227.45 1302.42C4215.75 1294.61 4201.6 1286.08 4185.03 1276.82C4168.45 1267.55 4148.94 1259.26 4126.51 1251.95C4104.57 1244.14 4078.48 1240.24 4048.25 1240.24C4020.94 1240.24 3997.05 1243.66 3976.57 1250.48C3956.09 1256.82 3938.77 1265.84 3924.63 1277.55C3910.98 1289.25 3900.74 1303.39 3893.91 1319.97C3887.09 1336.06 3883.67 1353.86 3883.67 1373.36C3883.67 1398.23 3890.5 1418.96 3904.15 1435.54C3918.29 1452.12 3936.82 1466.26 3959.74 1477.96C3982.66 1489.66 4008.75 1500.15 4038.01 1509.41C4067.26 1518.68 4097.25 1528.67 4127.97 1539.4C4158.69 1549.64 4188.68 1561.83 4217.94 1575.97C4247.2 1589.63 4273.29 1607.18 4296.2 1628.64C4319.12 1649.6 4337.41 1675.45 4351.06 1706.17C4365.2 1736.89 4372.27 1774.19 4372.27 1818.08C4372.27 1865.87 4363.98 1910.73 4347.4 1952.66C4331.31 1994.11 4307.42 2030.44 4275.72 2061.65C4244.52 2092.37 4206.24 2116.75 4160.89 2134.79C4115.54 2152.35 4063.61 2161.12 4005.09 2161.12C3971.45 2161.12 3938.29 2157.71 3905.62 2150.88C3872.95 2144.54 3841.49 2135.28 3811.26 2123.09C3781.52 2110.9 3753.48 2096.27 3727.15 2079.2C3700.81 2062.14 3677.41 2043.12 3656.93 2022.15L3714.71 1927.79C3719.59 1920.97 3725.93 1915.36 3733.73 1910.97C3741.53 1906.1 3749.82 1903.66 3758.6 1903.66C3770.79 1903.66 3783.95 1908.78 3798.09 1919.02C3812.24 1928.77 3829.06 1939.74 3848.56 1951.93C3868.07 1964.12 3890.74 1975.34 3916.59 1985.58C3942.92 1995.33 3974.37 2000.21 4010.94 2000.21C4067.02 2000.21 4110.42 1987.04 4141.14 1960.71C4171.86 1933.89 4187.22 1895.61 4187.22 1845.87C4187.22 1818.08 4180.15 1795.4 4166.01 1777.85C4152.35 1760.3 4134.07 1745.67 4111.15 1733.96C4088.23 1721.77 4062.14 1711.53 4032.89 1703.24C4003.63 1694.95 3973.88 1685.93 3943.65 1676.18C3913.42 1666.43 3883.67 1654.72 3854.42 1641.07C3825.16 1627.42 3799.07 1609.62 3776.15 1587.68C3753.23 1565.73 3734.7 1538.43 3720.56 1505.76C3706.91 1472.6 3700.08 1431.88 3700.08 1383.61C3700.08 1345.08 3707.64 1307.54 3722.76 1270.96C3738.36 1234.39 3760.79 1201.96 3790.05 1173.68C3819.31 1145.4 3855.39 1122.73 3898.3 1105.66C3941.21 1088.59 3990.46 1080.06 4046.05 1080.06C4108.47 1080.06 4166.01 1089.81 4218.67 1109.32C4271.33 1128.82 4316.2 1156.13 4353.26 1191.24L4304.25 1284.13ZM4901.82 1829.05C4849.65 1831.49 4805.76 1836.12 4770.16 1842.95C4734.57 1849.29 4706.04 1857.58 4684.59 1867.82C4663.13 1878.06 4647.77 1890 4638.5 1903.66C4629.24 1917.31 4624.61 1932.18 4624.61 1948.27C4624.61 1979.97 4633.87 2002.64 4652.4 2016.3C4671.42 2029.95 4696.04 2036.78 4726.28 2036.78C4763.34 2036.78 4795.28 2030.2 4822.1 2017.03C4849.4 2003.38 4875.98 1982.9 4901.82 1955.59V1829.05ZM4487.83 1503.56C4574.14 1424.57 4678 1385.07 4799.42 1385.07C4843.31 1385.07 4882.56 1392.38 4917.18 1407.01C4951.8 1421.15 4981.06 1441.14 5004.95 1466.99C5028.85 1492.35 5046.89 1522.82 5059.08 1558.42C5071.76 1594.02 5078.1 1633.03 5078.1 1675.45V2149.42H4996.18C4979.11 2149.42 4965.94 2146.98 4956.68 2142.11C4947.42 2136.74 4940.1 2126.26 4934.74 2110.65L4918.65 2056.53C4899.63 2073.59 4881.1 2088.71 4863.06 2101.88C4845.01 2114.55 4826.24 2125.28 4806.74 2134.06C4787.23 2142.84 4766.26 2149.42 4743.83 2153.81C4721.89 2158.68 4697.51 2161.12 4670.69 2161.12C4638.99 2161.12 4609.73 2156.98 4582.92 2148.69C4556.1 2139.91 4532.93 2126.99 4513.43 2109.92C4493.92 2092.86 4478.81 2071.64 4468.08 2046.29C4457.35 2020.93 4451.99 1991.43 4451.99 1957.78C4451.99 1938.77 4455.16 1919.99 4461.5 1901.46C4467.84 1882.45 4478.08 1864.4 4492.22 1847.34C4506.85 1830.27 4525.62 1814.18 4548.54 1799.06C4571.46 1783.95 4599.49 1770.78 4632.65 1759.56C4666.3 1748.35 4705.31 1739.33 4749.68 1732.5C4794.06 1725.19 4844.77 1720.8 4901.82 1719.33V1675.45C4901.82 1625.22 4891.09 1588.16 4869.64 1564.27C4848.18 1539.89 4817.22 1527.7 4776.75 1527.7C4747.49 1527.7 4723.11 1531.11 4703.6 1537.94C4684.59 1544.77 4667.76 1552.57 4653.13 1561.34C4638.5 1569.63 4625.1 1577.19 4612.9 1584.02C4601.2 1590.85 4588.04 1594.26 4573.41 1594.26C4560.73 1594.26 4550 1591.09 4541.22 1584.75C4532.45 1577.92 4525.38 1570.12 4520.01 1561.34L4487.83 1503.56ZM5288.06 2149.42V1535.01L5222.96 1524.77C5208.82 1521.85 5197.36 1516.97 5188.58 1510.14C5180.29 1502.83 5176.15 1492.59 5176.15 1479.42V1405.55H5288.06V1349.96C5288.06 1307.05 5294.39 1268.53 5307.07 1234.39C5320.24 1200.26 5338.77 1171.24 5362.66 1147.35C5387.04 1123.46 5416.54 1105.17 5451.17 1092.49C5485.79 1079.81 5524.8 1073.48 5568.2 1073.48C5602.82 1073.48 5635 1078.11 5664.75 1087.37L5661.09 1178.07C5660.6 1184.9 5658.65 1190.51 5655.24 1194.89C5651.82 1198.8 5647.19 1201.96 5641.34 1204.4C5635.98 1206.35 5629.64 1207.82 5622.32 1208.79C5615.01 1209.28 5607.21 1209.52 5598.92 1209.52C5577.46 1209.52 5558.2 1211.96 5541.13 1216.84C5524.55 1221.23 5510.41 1229.27 5498.71 1240.97C5487.01 1252.19 5477.99 1267.31 5471.65 1286.32C5465.79 1304.85 5462.87 1328.02 5462.87 1355.81V1405.55H5658.16V1534.28H5468.72V2149.42H5288.06ZM6153.27 1829.05C6101.09 1831.49 6057.2 1836.12 6021.61 1842.95C5986.01 1849.29 5957.48 1857.58 5936.03 1867.82C5914.57 1878.06 5899.21 1890 5889.95 1903.66C5880.68 1917.31 5876.05 1932.18 5876.05 1948.27C5876.05 1979.97 5885.32 2002.64 5903.85 2016.3C5922.86 2029.95 5947.49 2036.78 5977.72 2036.78C6014.78 2036.78 6046.72 2030.2 6073.54 2017.03C6100.85 2003.38 6127.42 1982.9 6153.27 1955.59V1829.05ZM5739.27 1503.56C5825.58 1424.57 5929.45 1385.07 6050.86 1385.07C6094.75 1385.07 6134 1392.38 6168.63 1407.01C6203.25 1421.15 6232.5 1441.14 6256.4 1466.99C6280.29 1492.35 6298.33 1522.82 6310.52 1558.42C6323.2 1594.02 6329.54 1633.03 6329.54 1675.45V2149.42H6247.62C6230.55 2149.42 6217.39 2146.98 6208.12 2142.11C6198.86 2136.74 6191.54 2126.26 6186.18 2110.65L6170.09 2056.53C6151.07 2073.59 6132.54 2088.71 6114.5 2101.88C6096.46 2114.55 6077.68 2125.28 6058.18 2134.06C6038.67 2142.84 6017.71 2149.42 5995.28 2153.81C5973.33 2158.68 5948.95 2161.12 5922.13 2161.12C5890.44 2161.12 5861.18 2156.98 5834.36 2148.69C5807.54 2139.91 5784.38 2126.99 5764.87 2109.92C5745.37 2092.86 5730.25 2071.64 5719.52 2046.29C5708.8 2020.93 5703.43 1991.43 5703.43 1957.78C5703.43 1938.77 5706.6 1919.99 5712.94 1901.46C5719.28 1882.45 5729.52 1864.4 5743.66 1847.34C5758.29 1830.27 5777.06 1814.18 5799.98 1799.06C5822.9 1783.95 5850.94 1770.78 5884.1 1759.56C5917.74 1748.35 5956.75 1739.33 6001.13 1732.5C6045.5 1725.19 6096.21 1720.8 6153.27 1719.33V1675.45C6153.27 1625.22 6142.54 1588.16 6121.08 1564.27C6099.63 1539.89 6068.66 1527.7 6028.19 1527.7C5998.93 1527.7 5974.55 1531.11 5955.05 1537.94C5936.03 1544.77 5919.21 1552.57 5904.58 1561.34C5889.95 1569.63 5876.54 1577.19 5864.35 1584.02C5852.64 1590.85 5839.48 1594.26 5824.85 1594.26C5812.17 1594.26 5801.44 1591.09 5792.67 1584.75C5783.89 1577.92 5776.82 1570.12 5771.46 1561.34L5739.27 1503.56ZM6670.12 1529.16C6693.52 1484.3 6721.32 1449.19 6753.5 1423.83C6785.68 1397.99 6823.72 1385.07 6867.61 1385.07C6902.23 1385.07 6930.02 1392.63 6950.99 1407.74L6939.29 1543.06C6936.85 1551.84 6933.19 1558.17 6928.31 1562.08C6923.93 1565.49 6917.83 1567.2 6910.03 1567.2C6902.71 1567.2 6891.74 1565.98 6877.11 1563.54C6862.97 1561.1 6849.08 1559.88 6835.42 1559.88C6815.43 1559.88 6797.63 1562.81 6782.03 1568.66C6766.42 1574.51 6752.28 1583.04 6739.6 1594.26C6727.41 1604.99 6716.44 1618.15 6706.69 1633.76C6697.42 1649.36 6688.65 1667.16 6680.36 1687.15V2149.42H6499.69V1398.97H6605.75C6624.28 1398.97 6637.2 1402.38 6644.52 1409.21C6651.83 1415.54 6656.71 1427.25 6659.15 1444.31L6670.12 1529.16ZM7456.79 1995.82C7493.36 1995.82 7524.08 1991.43 7548.95 1982.65C7573.82 1973.87 7593.57 1962.17 7608.2 1947.54C7623.31 1932.91 7634.04 1915.85 7640.38 1896.34C7647.21 1876.84 7650.62 1856.11 7650.62 1834.17C7650.62 1811.25 7646.96 1790.77 7639.65 1772.73C7632.33 1754.2 7620.88 1738.6 7605.27 1725.92C7589.67 1712.75 7569.43 1702.76 7544.56 1695.93C7520.18 1689.1 7490.68 1685.69 7456.06 1685.69H7257.84V1995.82H7456.79ZM7257.84 1243.9V1549.64H7414.37C7481.66 1549.64 7532.37 1537.45 7566.51 1513.07C7601.13 1488.69 7618.44 1449.92 7618.44 1396.77C7618.44 1341.67 7602.83 1302.42 7571.63 1279.01C7540.42 1255.6 7491.65 1243.9 7425.34 1243.9H7257.84ZM7425.34 1091.76C7494.58 1091.76 7553.83 1098.34 7603.08 1111.51C7652.33 1124.68 7692.56 1143.45 7723.76 1167.83C7755.46 1192.21 7778.62 1221.71 7793.25 1256.33C7807.88 1290.96 7815.19 1329.97 7815.19 1373.36C7815.19 1398.23 7811.54 1422.13 7804.22 1445.05C7796.91 1467.48 7785.45 1488.69 7769.84 1508.68C7754.73 1528.19 7735.22 1545.98 7711.33 1562.08C7687.92 1578.17 7659.89 1591.82 7627.21 1603.04C7772.53 1635.71 7845.18 1714.21 7845.18 1838.56C7845.18 1883.42 7836.65 1924.87 7819.58 1962.9C7802.52 2000.94 7777.65 2033.85 7744.98 2061.65C7712.31 2088.95 7672.08 2110.41 7624.29 2126.01C7576.5 2141.62 7521.89 2149.42 7460.45 2149.42H7061.08V1091.76H7425.34ZM8317.5 1387.26C8373.09 1387.26 8423.56 1396.28 8468.9 1414.33C8514.74 1432.37 8553.75 1457.97 8585.93 1491.13C8618.61 1524.28 8643.72 1564.76 8661.27 1612.54C8678.83 1660.33 8687.6 1713.73 8687.6 1772.73C8687.6 1832.22 8678.83 1885.86 8661.27 1933.65C8643.72 1981.43 8618.61 2022.15 8585.93 2055.8C8553.75 2089.44 8514.74 2115.29 8468.9 2133.33C8423.56 2151.37 8373.09 2160.39 8317.5 2160.39C8261.42 2160.39 8210.46 2151.37 8164.63 2133.33C8118.79 2115.29 8079.54 2089.44 8046.87 2055.8C8014.68 2022.15 7989.57 1981.43 7971.53 1933.65C7953.97 1885.86 7945.2 1832.22 7945.2 1772.73C7945.2 1713.73 7953.97 1660.33 7971.53 1612.54C7989.57 1564.76 8014.68 1524.28 8046.87 1491.13C8079.54 1457.97 8118.79 1432.37 8164.63 1414.33C8210.46 1396.28 8261.42 1387.26 8317.5 1387.26ZM8317.5 2021.42C8379.91 2021.42 8425.99 2000.45 8455.74 1958.51C8485.97 1916.58 8501.09 1855.14 8501.09 1774.19C8501.09 1693.25 8485.97 1631.56 8455.74 1589.14C8425.99 1546.72 8379.91 1525.5 8317.5 1525.5C8254.11 1525.5 8207.05 1546.96 8176.33 1589.87C8146.1 1632.29 8130.98 1693.73 8130.98 1774.19C8130.98 1854.65 8146.1 1916.09 8176.33 1958.51C8207.05 2000.45 8254.11 2021.42 8317.5 2021.42ZM9157.51 1387.26C9213.1 1387.26 9263.57 1396.28 9308.91 1414.33C9354.75 1432.37 9393.76 1457.97 9425.94 1491.13C9458.62 1524.28 9483.73 1564.76 9501.28 1612.54C9518.84 1660.33 9527.61 1713.73 9527.61 1772.73C9527.61 1832.22 9518.84 1885.86 9501.28 1933.65C9483.73 1981.43 9458.62 2022.15 9425.94 2055.8C9393.76 2089.44 9354.75 2115.29 9308.91 2133.33C9263.57 2151.37 9213.1 2160.39 9157.51 2160.39C9101.43 2160.39 9050.47 2151.37 9004.64 2133.33C8958.8 2115.29 8919.55 2089.44 8886.88 2055.8C8854.69 2022.15 8829.58 1981.43 8811.54 1933.65C8793.98 1885.86 8785.21 1832.22 8785.21 1772.73C8785.21 1713.73 8793.98 1660.33 8811.54 1612.54C8829.58 1564.76 8854.69 1524.28 8886.88 1491.13C8919.55 1457.97 8958.8 1432.37 9004.64 1414.33C9050.47 1396.28 9101.43 1387.26 9157.51 1387.26ZM9157.51 2021.42C9219.92 2021.42 9266 2000.45 9295.75 1958.51C9325.98 1916.58 9341.1 1855.14 9341.1 1774.19C9341.1 1693.25 9325.98 1631.56 9295.75 1589.14C9266 1546.72 9219.92 1525.5 9157.51 1525.5C9094.12 1525.5 9047.06 1546.96 9016.34 1589.87C8986.11 1632.29 8970.99 1693.73 8970.99 1774.19C8970.99 1854.65 8986.11 1916.09 9016.34 1958.51C9047.06 2000.45 9094.12 2021.42 9157.51 2021.42ZM9846.11 1062.5V1684.96H9879.76C9891.95 1684.96 9901.45 1683.49 9908.28 1680.57C9915.6 1677.16 9922.91 1670.57 9930.22 1660.82L10116.7 1430.42C10124.5 1420.18 10133.1 1412.37 10142.3 1407.01C10152.1 1401.65 10164.5 1398.97 10179.6 1398.97H10344.9L10111.6 1677.64C10095 1699.59 10077 1716.41 10057.5 1728.11C10067.7 1735.43 10076.8 1743.96 10084.6 1753.71C10092.8 1763.46 10100.6 1773.95 10108 1785.16L10358.1 2149.42H10195C10180.9 2149.42 10168.7 2147.23 10158.4 2142.84C10148.2 2137.96 10139.7 2129.43 10132.8 2117.24L9941.2 1832.71C9934.37 1821.49 9927.3 1814.18 9919.98 1810.76C9912.67 1807.35 9901.7 1805.64 9887.07 1805.64H9846.11V2149.42H9665.44V1062.5H9846.11Z" fill="black"/>
</svg>
